<mxfile host="app.diagrams.net" modified="2024-02-21T02:55:13.406Z" agent="Mozilla/5.0 (Windows NT 10.0; Win64; x64) AppleWebKit/537.36 (KHTML, like Gecko) Chrome/121.0.0.0 Safari/537.36" version="23.1.5" etag="qKhMb8lAbr2lB9f0ctpG" type="github">
  <diagram name="第 1 页" id="uQ5nZ9ODtgMMUpP7XAha">
    <mxGraphModel>
      <root>
        <mxCell id="0" />
        <mxCell id="1" parent="0" />
      </root>
    </mxGraphModel>
  </diagram>
</mxfile>
